<svg width="132" height="147" viewBox="0 0 132 147" fill="none" xmlns="http://www.w3.org/2000/svg">
<path fill-rule="evenodd" clip-rule="evenodd" d="M95.0166 135.26C87.1963 142.801 76.8267 147 65.9306 147C55.1135 147 44.8115 142.863 37.0068 135.417L13.0825 126.764C11.6675 126.252 10.6598 125.228 10.17 123.804L0.262656 95.0118C0.080348 94.4825 0.000518799 94.0037 0.000518799 93.4439C0.000518799 92.1255 0.000518799 90.807 0.000518799 89.4886C0.000518799 87.5654 0.000518799 85.6422 0.000518799 83.719V14.5399C0.000518799 6.5341 6.52684 0.000610352 14.5239 0.000610352H117.338C125.335 0.000610352 131.861 6.53372 131.861 14.5399V83.719C131.861 85.5563 131.861 87.394 131.861 89.2314C131.861 90.6357 131.861 92.0396 131.861 93.4439C131.861 94.0037 131.781 94.4825 131.599 95.0118L121.691 123.804C121.199 125.234 120.185 126.261 118.762 126.77L95.0166 135.26Z" fill="white"/>
<path fill-rule="evenodd" clip-rule="evenodd" d="M14.5233 4.8144H117.337C122.68 4.8144 127.051 9.19087 127.051 14.5394V83.7184C127.051 95.6283 127.051 83.7184 127.051 93.4434L117.144 122.236L92.394 131.085C85.6586 137.936 76.2911 142.186 65.93 142.186C55.6491 142.186 46.3448 138.002 39.6217 131.243L14.7161 122.235L4.80869 93.443C4.80869 83.718 4.80869 95.6279 4.80869 83.718V14.539C4.80869 9.1905 9.17999 4.81403 14.523 4.81403L14.5233 4.8144Z" fill="black"/>
<path fill-rule="evenodd" clip-rule="evenodd" d="M9.78558 92.6096L18.6463 118.36L41.3126 126.558C42.0362 126.82 42.6051 127.182 43.1479 127.728C49.2045 133.817 57.3456 137.204 65.9301 137.204C74.5821 137.204 82.7796 133.762 88.847 127.591C89.3984 127.03 89.9802 126.658 90.7202 126.393L113.218 118.35L122.075 92.6096C122.075 91.5692 122.075 90.5288 122.075 89.4884C122.075 87.5652 122.075 85.642 122.075 83.7187V14.5397C122.075 11.9411 119.933 9.79672 117.337 9.79672H14.5234C11.9276 9.79672 9.78558 11.9407 9.78558 14.5397V83.7187C9.78558 85.5561 9.78558 87.3938 9.78558 89.2312C9.78558 90.3574 9.78558 91.4833 9.78558 92.6096Z" fill="#DB5740"/>
<path fill-rule="evenodd" clip-rule="evenodd" d="M12.887 92.0896L21.0953 115.945L42.3663 123.638C43.5158 124.054 44.4831 124.67 45.3452 125.538C50.82 131.041 58.1714 134.099 65.93 134.099C73.7496 134.099 81.1522 130.992 86.6363 125.413C87.5125 124.522 88.5005 123.89 89.6768 123.469L110.771 115.928L118.973 92.09C118.973 91.2228 118.973 90.3556 118.973 89.4884C118.973 87.5652 118.973 85.642 118.973 83.7188V14.5397C118.973 13.6547 118.221 12.9016 117.337 12.9016H14.523C13.6389 12.9016 12.8867 13.6547 12.8867 14.5397V83.7188C12.8867 85.5561 12.8867 87.3938 12.8867 89.2312C12.8867 90.1842 12.8867 91.1369 12.8867 92.09L12.887 92.0896Z" fill="#522583"/>
<path fill-rule="evenodd" clip-rule="evenodd" d="M17.2431 91.3596L24.5354 112.552L43.8467 119.536C45.597 120.169 47.1193 121.14 48.4322 122.46C53.089 127.141 59.3306 129.738 65.9304 129.738C72.5819 129.738 78.8668 127.1 83.5318 122.354C84.8663 120.996 86.4205 120.003 88.212 119.362L107.335 112.525L114.618 91.3596C114.618 90.7358 114.618 90.1121 114.618 89.488C114.618 87.5648 114.618 85.6416 114.618 83.7184V59.0586C114.618 57.3079 113.703 56.1612 111.723 56.1612H20.1381C18.1584 56.1612 17.2439 57.3079 17.2439 59.0586V83.7184C17.2439 85.5557 17.2439 87.3935 17.2439 89.2308C17.2439 89.9404 17.2439 90.65 17.2439 91.3592L17.2431 91.3596Z" fill="black"/>
<path fill-rule="evenodd" clip-rule="evenodd" d="M19.2259 91.0272L26.1008 111.008L44.5202 117.669C46.5419 118.4 48.3201 119.535 49.8368 121.059C54.1213 125.366 59.8582 127.753 65.93 127.753C72.0498 127.753 77.8261 125.328 82.1183 120.961C83.6596 119.393 85.4756 118.232 87.5448 117.493L105.77 110.977L112.634 91.0272C112.634 90.5143 112.634 90.001 112.634 89.488C112.634 87.5648 112.634 85.6416 112.634 83.7184V59.0586C112.634 58.3026 112.482 58.1461 111.723 58.1461H20.1374C19.3781 58.1461 19.2259 58.3026 19.2259 59.0586V83.7184C19.2259 85.5557 19.2259 87.3934 19.2259 89.2308C19.2259 89.8296 19.2259 90.4284 19.2259 91.0272Z" fill="white"/>
<path fill-rule="evenodd" clip-rule="evenodd" d="M20.7682 90.7689L27.3191 109.807L45.0445 116.218C47.2801 117.026 49.2528 118.284 50.9299 119.97C54.9251 123.986 60.2685 126.209 65.93 126.209C71.6365 126.209 77.0167 123.95 81.0189 119.879C82.7232 118.145 84.7378 116.857 87.0261 116.039L104.553 109.773L111.092 90.7693C111.092 90.3422 111.092 89.9155 111.092 89.4888C111.092 87.5656 111.092 85.6424 111.092 83.7191V59.6909H20.7675V83.7191C20.7675 85.5565 20.7675 87.3942 20.7675 89.2316C20.7675 89.7441 20.7675 90.2567 20.7675 90.7693L20.7682 90.7689Z" fill="#522583"/>
<path fill-rule="evenodd" clip-rule="evenodd" d="M22.0967 90.5463L28.3684 108.772L45.496 114.967C47.9124 115.841 50.0581 117.208 51.8716 119.031C55.6169 122.797 60.6223 124.879 65.9304 124.879C71.2805 124.879 76.3205 122.763 80.0728 118.946C81.9152 117.072 84.1062 115.671 86.5798 114.787L103.505 108.735L109.764 90.5463C109.764 90.1935 109.764 89.8412 109.764 89.4884C109.764 87.5652 109.764 85.642 109.764 83.7188V61.0205H22.0971V83.7188C22.0971 85.5561 22.0971 87.3938 22.0971 89.2312C22.0971 89.6698 22.0971 90.108 22.0971 90.5463H22.0967Z" fill="black"/>
<mask id="mask0_46_2775" style="mask-type:luminance" maskUnits="userSpaceOnUse" x="22" y="61" width="88" height="64">
<path d="M22.0967 90.5463L28.3684 108.772L45.496 114.967C47.9124 115.841 50.0581 117.208 51.8716 119.031C55.6169 122.797 60.6223 124.879 65.9304 124.879C71.2805 124.879 76.3205 122.763 80.0728 118.946C81.9152 117.072 84.1062 115.671 86.5798 114.787L103.505 108.735L109.764 90.5463C109.764 90.1935 109.764 89.8412 109.764 89.4884C109.764 87.5652 109.764 85.642 109.764 83.7188V61.0205H22.0971V83.7188C22.0971 85.5561 22.0971 87.3938 22.0971 89.2312C22.0971 89.6698 22.0971 90.108 22.0971 90.5463H22.0967Z" fill="white"/>
</mask>
<g mask="url(#mask0_46_2775)">
<path fill-rule="evenodd" clip-rule="evenodd" d="M38.246 16.6637L140.559 119.089L197.671 86.0796L114.438 2.75485L38.246 16.6637Z" fill="#DB5740"/>
<path fill-rule="evenodd" clip-rule="evenodd" d="M-16.4137 47.6629C17.6909 81.8045 51.7951 115.947 85.8996 150.089C104.937 139.085 123.974 128.082 143.011 117.079C115.267 89.3041 87.5225 61.5291 59.7784 33.7544C34.3811 38.3903 8.98393 43.0266 -16.4133 47.6629H-16.4137Z" fill="#E48170"/>
<path fill-rule="evenodd" clip-rule="evenodd" d="M-42.4799 63.2645C-8.37539 97.4062 25.7288 131.548 59.8333 165.69C78.8705 154.687 97.9078 143.684 116.945 132.68C89.2005 104.905 61.4563 77.1307 33.7121 49.356C8.31486 53.9923 -17.0824 58.6282 -42.4796 63.2645H-42.4799Z" fill="#EDABA0"/>
<path fill-rule="evenodd" clip-rule="evenodd" d="M-68.5462 78.8662C-34.4417 113.008 -0.337524 147.15 33.767 181.292C52.8042 170.289 71.8415 159.285 90.8787 148.282C63.1345 120.507 35.39 92.7323 7.64577 64.9577C-17.7514 69.594 -43.1487 74.2303 -68.5459 78.8662H-68.5462Z" fill="#F6D5CF"/>
<path fill-rule="evenodd" clip-rule="evenodd" d="M-88.1426 90.866L14.1706 193.292L71.282 160.282L-11.951 76.9575L-88.1426 90.866Z" fill="white"/>
<path d="M24.883 64.6034C25.4744 64.6034 25.9538 64.1235 25.9538 63.5314C25.9538 62.9394 25.4744 62.4594 24.883 62.4594C24.2916 62.4594 23.8121 62.9394 23.8121 63.5314C23.8121 64.1235 24.2916 64.6034 24.883 64.6034Z" fill="white"/>
<path fill-rule="evenodd" clip-rule="evenodd" d="M30.3618 74.6209L30.8345 76.0962L31.9064 76.669L30.7937 77.2957L30.3618 78.7171L29.8895 77.2415L28.8172 76.669L29.93 76.0423L30.3618 74.6209Z" fill="white"/>
<path fill-rule="evenodd" clip-rule="evenodd" d="M39.827 98.8112L40.166 99.8695L40.9349 100.28L40.1367 100.73L39.827 101.749L39.4884 100.691L38.719 100.28L39.5173 99.8308L39.827 98.8112Z" fill="white"/>
<path fill-rule="evenodd" clip-rule="evenodd" d="M27.377 90.0326L27.716 91.0909L28.4849 91.5016L27.6866 91.951L27.377 92.9702L27.038 91.912L26.269 91.5016L27.0669 91.0518L27.377 90.0326Z" fill="white"/>
<path fill-rule="evenodd" clip-rule="evenodd" d="M47.5663 105.206L47.9053 106.264L48.6743 106.674L47.876 107.124L47.5663 108.143L47.2273 107.085L46.4584 106.674L47.2567 106.225L47.5663 105.206Z" fill="white"/>
<path fill-rule="evenodd" clip-rule="evenodd" d="M68.3112 98.2388L68.6502 99.297L69.4191 99.7078L68.6212 100.157L68.3112 101.177L67.9726 100.118L67.2036 99.7078L68.0015 99.2584L68.3112 98.2388Z" fill="white"/>
<path fill-rule="evenodd" clip-rule="evenodd" d="M75.3009 87.2054L75.7394 88.5752L76.7345 89.1063L75.7019 89.6881L75.3009 91.0073L74.8624 89.6379L73.8669 89.1063L74.8999 88.525L75.3009 87.2054Z" fill="white"/>
<path fill-rule="evenodd" clip-rule="evenodd" d="M83.3599 76.3966L83.9908 78.3666L85.4221 79.1309L83.9365 79.9676L83.3599 81.8651L82.7291 79.8951L81.2973 79.1309L82.7833 78.2941L83.3599 76.3966Z" fill="white"/>
<path fill-rule="evenodd" clip-rule="evenodd" d="M95.1394 63.3318L95.5682 64.6707L96.5407 65.19L95.5311 65.7587L95.1394 67.0478L94.7109 65.7093L93.7381 65.19L94.7477 64.6213L95.1394 63.3318Z" fill="white"/>
<path fill-rule="evenodd" clip-rule="evenodd" d="M59.7502 63.2467L60.179 64.5852L61.1514 65.1045L60.1419 65.6732L59.7502 66.9623L59.3217 65.6238L58.3489 65.1045L59.3584 64.5362L59.7502 63.2467Z" fill="white"/>
<path d="M36.9591 87.4508C37.192 87.4508 37.3809 87.2617 37.3809 87.0285C37.3809 86.7953 37.192 86.6063 36.9591 86.6063C36.7261 86.6063 36.5373 86.7953 36.5373 87.0285C36.5373 87.2617 36.7261 87.4508 36.9591 87.4508Z" fill="white"/>
<path d="M31.3506 104.607C31.5836 104.607 31.7724 104.418 31.7724 104.185C31.7724 103.951 31.5836 103.762 31.3506 103.762C31.1177 103.762 30.9288 103.951 30.9288 104.185C30.9288 104.418 31.1177 104.607 31.3506 104.607Z" fill="white"/>
<path d="M44.4508 88.6566C44.6837 88.6566 44.8726 88.4675 44.8726 88.2343C44.8726 88.0011 44.6837 87.812 44.4508 87.812C44.2178 87.812 44.029 88.0011 44.029 88.2343C44.029 88.4675 44.2178 88.6566 44.4508 88.6566Z" fill="white"/>
<path d="M73.6096 109.57C73.8426 109.57 74.0314 109.381 74.0314 109.148C74.0314 108.915 73.8426 108.726 73.6096 108.726C73.3767 108.726 73.1878 108.915 73.1878 109.148C73.1878 109.381 73.3767 109.57 73.6096 109.57Z" fill="white"/>
<path d="M81.7507 99.2535C81.9837 99.2535 82.1725 99.0645 82.1725 98.8313C82.1725 98.5981 81.9837 98.409 81.7507 98.409C81.5178 98.409 81.3289 98.5981 81.3289 98.8313C81.3289 99.0645 81.5178 99.2535 81.7507 99.2535Z" fill="white"/>
<path d="M71.1438 69.8445C71.4814 69.8445 71.755 69.5706 71.755 69.2327C71.755 68.8948 71.4814 68.6208 71.1438 68.6208C70.8063 68.6208 70.5327 68.8948 70.5327 69.2327C70.5327 69.5706 70.8063 69.8445 71.1438 69.8445Z" fill="white"/>
<path d="M34.6645 66.7864C35.002 66.7864 35.2756 66.5125 35.2756 66.1746C35.2756 65.8367 35.002 65.5628 34.6645 65.5628C34.3269 65.5628 34.0533 65.8367 34.0533 66.1746C34.0533 66.5125 34.3269 66.7864 34.6645 66.7864Z" fill="white"/>
<path fill-rule="evenodd" clip-rule="evenodd" d="M40.4537 75.4145L40.7849 76.4493L41.5368 76.8508L40.7564 77.2902L40.4537 78.2867L40.1225 77.2519L39.3707 76.8508L40.1508 76.4111L40.4537 75.4145Z" fill="white"/>
<path d="M52.2087 84.1184C52.8001 84.1184 53.2795 83.6384 53.2795 83.0464C53.2795 82.4543 52.8001 81.9744 52.2087 81.9744C51.6173 81.9744 51.1379 82.4543 51.1379 83.0464C51.1379 83.6384 51.6173 84.1184 52.2087 84.1184Z" fill="white"/>
<path fill-rule="evenodd" clip-rule="evenodd" d="M53.0493 92.1287L53.522 93.604L54.5939 94.1764L53.4815 94.8035L53.0493 96.2245L52.577 94.7489L51.5047 94.1764L52.6175 93.5501L53.0493 92.1287Z" fill="white"/>
<path fill-rule="evenodd" clip-rule="evenodd" d="M68.3736 106.563L68.7126 107.621L69.4815 108.032L68.6836 108.481L68.3736 109.5L68.0349 108.442L67.266 108.032L68.0639 107.582L68.3736 106.563Z" fill="white"/>
<path fill-rule="evenodd" clip-rule="evenodd" d="M55.3157 102.76L55.6547 103.818L56.4237 104.229L55.6254 104.678L55.3157 105.698L54.9767 104.64L54.2078 104.229L55.0061 103.779L55.3157 102.76Z" fill="white"/>
<path fill-rule="evenodd" clip-rule="evenodd" d="M76.1129 112.957L76.4519 114.015L77.2209 114.426L76.4229 114.875L76.1129 115.895L75.7743 114.837L75.0049 114.426L75.8032 113.976L76.1129 112.957Z" fill="white"/>
<path fill-rule="evenodd" clip-rule="evenodd" d="M96.8581 105.99L97.1968 107.049L97.9657 107.459L97.1678 107.909L96.8581 108.928L96.5191 107.87L95.7502 107.459L96.5481 107.01L96.8581 105.99Z" fill="white"/>
<path fill-rule="evenodd" clip-rule="evenodd" d="M98.5583 89.4294L98.9968 90.7987L99.9919 91.3303L98.9593 91.9116L98.5583 93.2312L98.1198 91.8614L97.1247 91.3303L98.1577 90.7485L98.5583 89.4294Z" fill="white"/>
<path fill-rule="evenodd" clip-rule="evenodd" d="M105.676 76.9679L106.306 78.9379L107.738 79.7022L106.252 80.5389L105.676 82.4364L105.045 80.4664L103.613 79.7022L105.099 78.8654L105.676 76.9679Z" fill="white"/>
<path fill-rule="evenodd" clip-rule="evenodd" d="M82.2345 65.2067L82.6634 66.5452L83.6358 67.0649L82.6262 67.6332L82.2345 68.923L81.806 67.5841L80.8332 67.0649L81.8428 66.4962L82.2345 65.2067Z" fill="white"/>
<path fill-rule="evenodd" clip-rule="evenodd" d="M48.4222 65.5631L48.7534 66.5976L49.5053 66.999L48.7248 67.4384L48.4222 68.4349L48.091 67.4005L47.3391 66.999L48.1196 66.5597L48.4222 65.5631Z" fill="white"/>
<path d="M66.2096 102.495C66.4426 102.495 66.6314 102.306 66.6314 102.073C66.6314 101.84 66.4426 101.651 66.2096 101.651C65.9767 101.651 65.7878 101.84 65.7878 102.073C65.7878 102.306 65.9767 102.495 66.2096 102.495Z" fill="white"/>
<path d="M59.8972 112.358C60.1301 112.358 60.319 112.169 60.319 111.936C60.319 111.703 60.1301 111.514 59.8972 111.514C59.6642 111.514 59.4754 111.703 59.4754 111.936C59.4754 112.169 59.6642 112.358 59.8972 112.358Z" fill="white"/>
<path d="M90.5549 89.4275C90.7879 89.4275 90.9767 89.2385 90.9767 89.0053C90.9767 88.772 90.7879 88.583 90.5549 88.583C90.322 88.583 90.1331 88.772 90.1331 89.0053C90.1331 89.2385 90.322 89.4275 90.5549 89.4275Z" fill="white"/>
<path d="M102.157 117.322C102.39 117.322 102.578 117.133 102.578 116.9C102.578 116.666 102.39 116.477 102.157 116.477C101.924 116.477 101.735 116.666 101.735 116.9C101.735 117.133 101.924 117.322 102.157 117.322Z" fill="white"/>
<path d="M104.256 98.8042C104.489 98.8042 104.678 98.6151 104.678 98.3819C104.678 98.1487 104.489 97.9597 104.256 97.9597C104.023 97.9597 103.834 98.1487 103.834 98.3819C103.834 98.6151 104.023 98.8042 104.256 98.8042Z" fill="white"/>
<path d="M102.036 68.9253C102.374 68.9253 102.647 68.6514 102.647 68.3135C102.647 67.9756 102.374 67.7016 102.036 67.7016C101.699 67.7016 101.425 67.9756 101.425 68.3135C101.425 68.6514 101.699 68.9253 102.036 68.9253Z" fill="white"/>
<path d="M93.8632 77.2808C94.2008 77.2808 94.4744 77.0069 94.4744 76.669C94.4744 76.3311 94.2008 76.0572 93.8632 76.0572C93.5257 76.0572 93.2521 76.3311 93.2521 76.669C93.2521 77.0069 93.5257 77.2808 93.8632 77.2808Z" fill="white"/>
<path d="M71.0194 67.7027C71.357 67.7027 71.6306 67.4288 71.6306 67.0909C71.6306 66.753 71.357 66.4791 71.0194 66.4791C70.6819 66.4791 70.4083 66.753 70.4083 67.0909C70.4083 67.4288 70.6819 67.7027 71.0194 67.7027Z" fill="white"/>
<path fill-rule="evenodd" clip-rule="evenodd" d="M54.3422 72.284L54.6734 73.3185L55.4253 73.7199L54.6448 74.1593L54.3422 75.1558L54.0106 74.1213L53.2591 73.7199L54.0392 73.2805L54.3422 72.284Z" fill="white"/>
<path fill-rule="evenodd" clip-rule="evenodd" d="M61.5342 87.5723C57.3935 93.5884 35.912 122.854 17.1581 111.516L64.2477 144.114H67.4041L114.494 111.516C95.7398 122.854 74.2583 93.588 70.1176 87.5723C69.9137 87.7121 69.6727 87.7861 69.408 87.7868C67.0198 87.7954 64.6316 87.7957 62.2434 87.7868C61.9787 87.7857 61.7377 87.7121 61.5339 87.5723H61.5342Z" fill="#210A32"/>
<path fill-rule="evenodd" clip-rule="evenodd" d="M62.8925 87.789C60.4764 94.5612 47.7297 126.383 18.9637 134.621L55.2894 151.032L65.8261 150.645L76.3628 151.032L112.688 134.621C83.9221 126.383 71.2467 94.56 68.8466 87.789C66.862 87.795 64.877 87.7954 62.8928 87.7894L62.8925 87.789Z" fill="#501778"/>
<path fill-rule="evenodd" clip-rule="evenodd" d="M64.56 87.7927C64.4066 94.8072 62.8037 128.886 46.1554 140.903L65.8257 148.17L85.496 140.903C68.8481 128.885 67.2448 94.8065 67.0915 87.7924C66.2475 87.7935 65.4035 87.7935 64.5596 87.7924L64.56 87.7927Z" fill="white"/>
</g>
<path d="M28.8184 36.189C34.7023 36.189 39.0124 32.2103 39.0124 26.7332C39.0124 21.2561 34.7023 17.2773 28.8184 17.2773C22.9344 17.2773 18.6243 21.2561 18.6243 26.7332C18.6243 32.2103 22.934 36.189 28.8184 36.189ZM28.8184 31.2546C26.5731 31.2546 24.7667 29.5496 24.7667 26.7336C24.7667 23.9175 26.5731 22.2125 28.8184 22.2125C31.0636 22.2125 32.87 23.9175 32.87 26.7336C32.87 29.5496 31.0632 31.2546 28.8184 31.2546ZM52.0446 35.7757H58.5479L54.7543 30.1953C56.922 29.0846 58.161 27.1209 58.161 24.5115C58.161 20.3261 54.9608 17.6907 49.9285 17.6907H41.2316V35.7757H47.322V31.2286H48.9736L52.0446 35.7757ZM52.019 24.5115C52.019 25.8292 51.2188 26.6299 49.5417 26.6299H47.322V22.3928H49.5417C51.2192 22.3928 52.019 23.1938 52.019 24.5115ZM71.4 22.2894V17.6907H59.8901V22.2894H62.5999V31.1769H59.8901V35.7757H71.4V31.1769H68.6903V22.2894H71.4ZM83.1164 36.189C89.0003 36.189 93.3104 32.2103 93.3104 26.7332C93.3104 21.2561 89.0003 17.2773 83.1164 17.2773C77.2324 17.2773 72.9223 21.2561 72.9223 26.7332C72.9223 32.2103 77.232 36.189 83.1164 36.189ZM83.1164 31.2546C80.8711 31.2546 79.0647 29.5496 79.0647 26.7336C79.0647 23.9175 80.8711 22.2125 83.1164 22.2125C85.3616 22.2125 87.168 23.9175 87.168 26.7336C87.168 29.5496 85.3612 31.2546 83.1164 31.2546ZM106.497 17.2777C104.304 17.2777 102.601 18.1304 101.439 19.6288V17.6911H95.5292V35.7761H101.62V25.7002C101.62 23.2975 102.884 22.2125 104.459 22.2125C106.085 22.2125 107.143 23.2202 107.143 25.4935V35.7761H113.233V25.3125C113.233 20.1454 110.756 17.2777 106.497 17.2777Z" fill="white"/>
<path d="M27.009 45.2078C27.9287 44.7476 28.4029 43.9707 28.4029 43.0355C28.4029 41.5108 27.1096 40.4031 24.3364 40.4031H18.9626V50.4723H24.6238C27.3966 50.4723 28.8766 49.4508 28.8766 47.696C28.8766 46.5021 28.1871 45.639 27.0086 45.2074L27.009 45.2078ZM23.8767 42.7768C24.6383 42.7768 24.9832 43.0355 24.9832 43.5247C24.9832 44.0139 24.6383 44.2726 23.8767 44.2726H22.2961V42.7765H23.8767V42.7768ZM24.3364 48.0989H22.2961V46.5166H24.3364C25.0834 46.5166 25.4573 46.7898 25.4573 47.3076C25.4573 47.8253 25.0838 48.0985 24.3364 48.0985V48.0989ZM35.3428 50.7027C38.6188 50.7027 41.0185 48.4874 41.0185 45.4382C41.0185 42.3888 38.6188 40.1734 35.3428 40.1734C32.0668 40.1734 29.6671 42.3888 29.6671 45.4382C29.6671 48.4877 32.0668 50.7027 35.3428 50.7027ZM35.3428 47.9554C34.0926 47.9554 33.0868 47.0061 33.0868 45.4382C33.0868 43.8704 34.0926 42.921 35.3428 42.921C36.593 42.921 37.5984 43.8704 37.5984 45.4382C37.5984 47.0061 36.5926 47.9554 35.3428 47.9554ZM47.5273 50.7027C50.8033 50.7027 53.203 48.4874 53.203 45.4382C53.203 42.3888 50.8033 40.1734 47.5273 40.1734C44.2514 40.1734 41.8517 42.3888 41.8517 45.4382C41.8517 48.4877 44.2514 50.7027 47.5273 50.7027ZM47.5273 47.9554C46.2772 47.9554 45.2713 47.0061 45.2713 45.4382C45.2713 43.8704 46.2772 42.921 47.5273 42.921C48.7775 42.921 49.783 43.8704 49.783 45.4382C49.783 47.0061 48.7771 47.9554 47.5273 47.9554ZM63.5626 41.5112C62.1112 40.6339 60.2722 40.1734 58.3901 40.1734C56.5076 40.1734 54.6685 40.6336 53.2171 41.5112L54.3381 43.9276C55.0851 43.5106 55.8467 43.2084 56.6943 43.0359V50.4726H60.0854V43.0359C60.9331 43.2087 61.6946 43.5106 62.4417 43.9276L63.5626 41.5112ZM69.1807 50.7027C71.1494 50.7027 72.701 49.9835 73.6924 48.6888L71.5515 46.7756C70.9622 47.5235 70.2583 47.9551 69.353 47.9551C67.9451 47.9551 66.9968 46.9767 66.9968 45.4379C66.9968 43.8986 67.9451 42.9207 69.353 42.9207C70.2583 42.9207 70.9622 43.3522 71.5515 44.1001L73.6924 42.1869C72.701 40.8923 71.149 40.173 69.1807 40.173C65.9478 40.173 63.5771 42.3453 63.5771 45.4379C63.5771 48.5305 65.9478 50.7024 69.1807 50.7024V50.7027ZM79.5404 40.1734C76.6089 40.1734 74.5831 41.9572 74.5831 45.1074V50.473H77.9167V48.4446H81.1065V50.473H84.4976V45.1074C84.4976 41.9572 82.4714 40.1734 79.5404 40.1734ZM77.9167 45.8839V44.8194C77.9167 43.5247 78.5921 42.9207 79.5118 42.9207C80.4315 42.9207 81.1065 43.5251 81.1065 44.8194V45.8839H77.9167ZM98.1046 40.1734C96.7968 40.1734 95.6763 40.6194 94.9578 41.5257C94.34 40.6339 93.3772 40.1734 92.0984 40.1734C90.8627 40.1734 89.9289 40.6049 89.3256 41.4104V40.4035H86.0496V50.4726H89.4407V44.5751C89.4407 43.4675 90.001 42.9207 90.8345 42.9207C91.6536 42.9207 92.1708 43.4385 92.1708 44.4599V50.4726H95.5619V44.5751C95.5619 43.4675 96.1797 42.9207 97.0705 42.9207C97.9471 42.9207 98.5219 43.4385 98.5219 44.4599V50.4726H101.913V44.3592C101.913 41.626 100.476 40.1734 98.1053 40.1734H98.1046ZM108.306 40.4035H103.464V50.4726H106.855V47.9986H108.307C111.109 47.9986 112.89 46.5314 112.89 44.2012C112.89 41.871 111.109 40.4038 108.307 40.4038L108.306 40.4035ZM108.091 45.3806H106.855V43.0218H108.091C109.024 43.0218 109.47 43.4678 109.47 44.2012C109.47 44.935 109.024 45.3806 108.091 45.3806Z" fill="white"/>
<path fill-rule="evenodd" clip-rule="evenodd" d="M69.5079 86.3713C67.1186 86.3795 64.7408 86.3802 62.3526 86.3713C62.5976 85.5413 62.8204 84.7897 63.071 83.9418L62.6244 83.7742L62.6756 83.0029L62.0593 82.6171L60.0301 86.6285L59.2853 86.3456L59.1824 79.6341L60.3127 78.6056L60.9806 80.1486L62.65 77.9113C62.65 77.9113 62.7269 69.2977 65.8862 66.5203H65.9742C69.1336 69.2977 69.2105 77.9113 69.2105 77.9113L70.8798 80.1486L71.5478 78.6056L72.678 79.6341L72.5752 86.3456L71.8304 86.6285L69.8012 82.6171L69.1849 83.0029L69.2361 83.7742L68.7894 83.9418C69.0401 84.7897 69.2628 85.5413 69.5079 86.3713Z" fill="#210A32"/>
</svg>
