<svg width="18" height="22" viewBox="0 0 18 22" fill="none" xmlns="http://www.w3.org/2000/svg">
<path id="Vector" d="M3 7.67383V6.67383C3 5.08253 3.63214 3.55641 4.75736 2.43119C5.88258 1.30597 7.4087 0.673828 9 0.673828C10.5913 0.673828 12.1174 1.30597 13.2426 2.43119C14.3679 3.55641 15 5.08253 15 6.67383V7.67383H17C17.2652 7.67383 17.5196 7.77919 17.7071 7.96672C17.8946 8.15426 18 8.40861 18 8.67383V20.6738C18 20.939 17.8946 21.1934 17.7071 21.3809C17.5196 21.5685 17.2652 21.6738 17 21.6738H1C0.734784 21.6738 0.48043 21.5685 0.292893 21.3809C0.105357 21.1934 0 20.939 0 20.6738V8.67383C0 8.40861 0.105357 8.15426 0.292893 7.96672C0.48043 7.77919 0.734784 7.67383 1 7.67383H3ZM16 9.67383H2V19.6738H16V9.67383ZM8 15.4058C7.61872 15.1857 7.32072 14.8459 7.15224 14.4391C6.98376 14.0324 6.9542 13.5814 7.06815 13.1561C7.1821 12.7309 7.43319 12.3551 7.78248 12.0871C8.13177 11.8191 8.55973 11.6738 9 11.6738C9.44027 11.6738 9.86823 11.8191 10.2175 12.0871C10.5668 12.3551 10.8179 12.7309 10.9319 13.1561C11.0458 13.5814 11.0162 14.0324 10.8478 14.4391C10.6793 14.8459 10.3813 15.1857 10 15.4058V17.6738H8V15.4058ZM5 7.67383H13V6.67383C13 5.61296 12.5786 4.59555 11.8284 3.8454C11.0783 3.09526 10.0609 2.67383 9 2.67383C7.93913 2.67383 6.92172 3.09526 6.17157 3.8454C5.42143 4.59555 5 5.61296 5 6.67383V7.67383Z" fill="#A42D2D"/>
</svg>
