<svg width="15" height="16" viewBox="0 0 15 16" fill="none" xmlns="http://www.w3.org/2000/svg">
<g id="Group">
<path id="Vector" d="M7.60996 1.7121C7.53781 1.6959 7.46297 1.6959 7.39082 1.7121L2.73452 2.7579L2.73406 2.75801C2.24453 2.86844 1.90039 3.30499 1.90039 3.80473V9.52513C1.90039 10.8383 2.54964 12.0671 3.63512 12.7983C3.63514 12.7983 3.63516 12.7983 3.63519 12.7983L7.22098 15.2146C7.38987 15.3284 7.61091 15.3284 7.7798 15.2146L11.3655 12.7983C12.4506 12.0677 13.1004 10.8383 13.1004 9.52456V3.80473C13.1004 3.30499 12.7562 2.86844 12.2667 2.75801L12.2663 2.7579L7.60996 1.7121ZM7.57358 9.52232L10.0233 7.04692L10.1215 7.14615L7.21876 10.08L5.51777 8.36078L5.61566 8.26184L6.86276 9.52228C6.95667 9.6172 7.08464 9.67061 7.21816 9.67061C7.35169 9.67062 7.47966 9.61722 7.57358 9.52232Z" stroke="#A42D2D" stroke-linecap="round" stroke-linejoin="round"/>
</g>
</svg>
