<svg width="69" height="69" viewBox="0 0 69 69" fill="none" xmlns="http://www.w3.org/2000/svg">
<g id="action/check_circle_outline_24px">
<path id=" &#226;&#134;&#179;Color" fill-rule="evenodd" clip-rule="evenodd" d="M47.6963 21.7925L28.75 40.7388L18.4288 30.4462L14.375 34.5L28.75 48.875L51.75 25.875L47.6963 21.7925ZM34.5 5.75C18.63 5.75 5.75 18.63 5.75 34.5C5.75 50.37 18.63 63.25 34.5 63.25C50.37 63.25 63.25 50.37 63.25 34.5C63.25 18.63 50.37 5.75 34.5 5.75ZM34.5 57.5C21.7925 57.5 11.5 47.2075 11.5 34.5C11.5 21.7925 21.7925 11.5 34.5 11.5C47.2075 11.5 57.5 21.7925 57.5 34.5C57.5 47.2075 47.2075 57.5 34.5 57.5Z" fill="black" fill-opacity="0.87"/>
</g>
</svg>
