<svg width="27" height="27" viewBox="0 0 27 27" fill="none" xmlns="http://www.w3.org/2000/svg">
<g id="Frame 735">
<path id="Vector" d="M9.05739 19.0852C8.76273 19.0852 8.4721 18.9722 8.2501 18.7501C7.80205 18.3021 7.80205 17.5796 8.2501 17.1315L17.1303 8.25132C17.5784 7.80327 18.3009 7.80327 18.7489 8.25132C19.197 8.69937 19.197 9.42189 18.7489 9.86994L9.86872 18.7501C9.64672 18.9722 9.35205 19.0852 9.06143 19.0852H9.05739Z" fill="black"/>
<path id="Vector_2" d="M17.9376 19.0852C17.6429 19.0852 17.3523 18.9722 17.1303 18.7501L8.2501 9.86994C7.80205 9.42189 7.80205 8.69937 8.2501 8.25132C8.69814 7.80327 9.42067 7.80327 9.86872 8.25132L18.7489 17.1315C19.197 17.5796 19.197 18.3021 18.7489 18.7501C18.5269 18.9722 18.2323 19.0852 17.9416 19.0852H17.9376Z" fill="black"/>
</g>
</svg>
